<svg width="24" height="24" viewBox="0 0 24 24" fill="none" xmlns="http://www.w3.org/2000/svg">
<path d="M22.8976 22.0959C23.4809 21.5074 23.4765 20.5573 22.8877 19.9742L15.8362 12.991C15.2474 12.4079 15.243 11.4579 15.8263 10.8693L22.8061 3.82645C23.3893 3.23807 23.385 2.28837 22.7967 1.70521L22.0958 1.01051C21.5072 0.427148 20.5571 0.431568 19.974 1.02038L12.9955 8.06723C12.4126 8.65588 11.4628 8.66049 10.8742 8.07751L3.82462 1.09557C3.23802 0.514594 2.29221 0.516872 1.70842 1.10066L1.01935 1.78973C0.431726 2.37736 0.433836 3.33073 1.02405 3.91574L8.0751 10.9046C8.66329 11.4876 8.66771 12.437 8.08496 13.0254L1.09534 20.0835C0.514415 20.6701 0.516717 21.6158 1.10049 22.1996L1.78967 22.8888C2.37727 23.4764 3.3306 23.4743 3.91562 22.8841L10.911 15.8274C11.4942 15.239 12.4439 15.2349 13.0323 15.8181L20.0816 22.806C20.67 23.3893 21.6198 23.3851 22.203 22.7967L22.8976 22.0959Z" fill="black"/>
</svg>
